<?xml version="1.0" encoding="UTF-8"?>
<svg xmlns="http://www.w3.org/2000/svg" style="display:none">
  <!-- Simple icons using currentColor so they can be colored via CSS -->
  <symbol id="icon-profile" viewBox="0 0 24 24">
    <path fill="currentColor" d="M12 12c2.21 0 4-1.79 4-4s-1.79-4-4-4-4 1.79-4 4 1.79 4 4 4zm0 2c-2.67 0-8 1.34-8 4v2h16v-2c0-2.66-5.33-4-8-4z"/>
  </symbol>
  <symbol id="icon-events" viewBox="0 0 24 24">
    <path fill="currentColor" d="M19 4h-1V2h-2v2H8V2H6v2H5c-1.11 0-1.99.9-1.99 2L3 20c0 1.1.89 2 1.99 2H19c1.11 0 2-.9 2-2V6c0-1.1-.89-2-2-2zM19 20H5V9h14v11z"/>
  </symbol>
  <symbol id="icon-browse" viewBox="0 0 24 24">
    <path fill="currentColor" d="M12 2a10 10 0 100 20 10 10 0 000-20zm3.9 7.1l-1.5 4.4-4.4 1.5 1.5-4.4 4.4-1.5z"/>
  </symbol>
  <symbol id="icon-heart" viewBox="0 0 24 24">
    <path fill="currentColor" d="M12.1 8.64l-.1.1-.11-.1C10.14 6.8 7.4 6.36 5.6 8.03 3.6 9.9 3.7 13.26 6.1 15.24L12 20l5.9-4.76c2.4-1.98 2.5-5.34.5-7.21-1.8-1.67-4.54-1.23-6.2 0z"/>
  </symbol>
  <symbol id="icon-messages" viewBox="0 0 24 24">
    <path fill="currentColor" d="M20 2H4c-1.1 0-2 .9-2 2v14l4-4h14c1.1 0 2-.9 2-2V4c0-1.1-.9-2-2-2z"/>
  </symbol>
  <symbol id="icon-view" viewBox="0 0 24 24">
    <path fill="currentColor" d="M12 6a9.77 9.77 0 00-8.66 5A9.77 9.77 0 0012 16a9.77 9.77 0 008.66-5A9.77 9.77 0 0012 6zm0 8a3 3 0 110-6 3 3 0 010 6z"/>
  </symbol>
</svg>
